<?xml version="1.0" standalone="no"?>
<!DOCTYPE svg PUBLIC "-//W3C//DTD SVG 20010904//EN"
 "http://www.w3.org/TR/2001/REC-SVG-20010904/DTD/svg10.dtd">
<svg version="1.0" xmlns="http://www.w3.org/2000/svg"
 width="300.000000pt" height="300.000000pt" viewBox="0 0 300.000000 300.000000"
 preserveAspectRatio="xMidYMid meet">
<metadata>
Created by potrace 1.10, written by Peter Selinger 2001-2011
</metadata>
<g transform="translate(0.000000,300.000000) scale(0.100000,-0.100000)"
fill="#000000" stroke="none">
<path d="M1649 2630 c-113 -23 -193 -51 -304 -107 -236 -119 -426 -280 -492
-418 -18 -38 -33 -75 -33 -82 0 -6 -22 -23 -49 -37 -162 -81 -339 -241 -438
-395 -86 -133 -129 -266 -132 -408 -1 -42 -4 -51 -16 -47 -19 8 -20 -10 -1
-25 22 -19 27 -51 8 -51 -15 -1 -15 -2 1 -14 9 -7 17 -18 17 -25 0 -6 4 -11 8
-11 4 0 9 -11 10 -25 1 -19 -7 -31 -37 -51 -33 -21 -66 -72 -63 -94 0 -3 -11
-7 -24 -8 -14 -1 -37 -8 -52 -17 -27 -14 -26 -14 26 -15 47 0 52 -2 53 -22 0
-13 2 -31 4 -41 2 -11 -13 -33 -38 -57 -50 -46 -44 -64 7 -25 53 41 77 36 132
-24 39 -43 73 -65 203 -129 164 -81 213 -103 271 -121 127 -38 273 -33 431 15
46 14 98 28 114 30 17 3 37 8 45 11 8 3 20 7 25 7 34 5 108 20 155 33 30 8 71
19 90 24 182 45 311 159 360 314 7 22 24 52 38 68 30 32 33 83 8 132 -9 17
-16 38 -16 47 0 9 -5 20 -11 24 -8 4 -7 9 2 14 10 7 7 17 -13 47 -28 42 -45
90 -52 143 -5 32 -24 132 -30 155 -20 72 -65 149 -121 208 -31 31 -61 57 -67
57 -6 0 -8 3 -5 7 4 3 42 8 84 9 299 11 625 87 808 188 117 64 253 167 293
220 98 132 126 202 111 275 -14 67 -64 90 -194 91 -126 0 -304 -21 -460 -54
-41 -8 -171 -50 -212 -67 -48 -20 -61 -14 -34 15 33 35 71 115 78 161 5 40 3
44 -23 58 -62 32 -341 42 -465 17z m408 -43 c19 -6 37 -17 40 -24 7 -17 -38
-104 -87 -168 -31 -42 -55 -59 -146 -105 -177 -90 -276 -153 -401 -258 -50
-42 -140 -148 -132 -157 2 -2 35 26 72 61 88 84 218 178 332 239 50 26 96 52
103 58 6 5 12 6 12 2 0 -4 7 -1 16 6 9 7 21 14 28 15 6 2 59 23 119 48 59 25
107 43 107 40 0 -2 14 2 30 11 17 9 30 13 30 10 0 -3 10 -1 21 6 12 6 31 13
43 15 11 2 39 7 61 13 59 13 146 31 180 36 17 2 57 9 90 15 68 11 175 13 251
4 62 -8 104 -41 104 -82 0 -40 -66 -163 -119 -218 -51 -55 -107 -104 -117
-104 -4 0 -22 -11 -40 -25 -18 -14 -37 -25 -42 -25 -6 0 -12 -3 -14 -7 -3 -8
-39 -28 -151 -85 -145 -73 -402 -129 -662 -144 -96 -5 -222 -21 -236 -30 -18
-11 -8 -21 16 -16 57 10 197 -122 231 -219 11 -32 22 -57 25 -55 2 2 4 -5 5
-17 1 -12 4 -38 8 -57 3 -19 8 -48 10 -65 6 -54 18 -88 63 -193 50 -117 62
-183 32 -175 -14 4 -19 -1 -21 -18 -2 -43 -3 -48 -11 -55 -4 -4 -7 -17 -7 -29
0 -34 -94 -167 -147 -207 -44 -33 -163 -94 -163 -84 0 3 -15 0 -32 -4 -18 -5
-53 -12 -77 -15 -54 -8 -161 -35 -311 -80 -74 -22 -130 -36 -160 -40 -59 -9
-217 -6 -242 4 -16 6 -28 9 -28 6 0 -2 -18 2 -40 10 -22 8 -42 14 -45 15 -18
2 -200 91 -293 144 -61 34 -142 105 -142 124 0 6 9 14 20 17 11 3 20 11 20 16
0 12 -32 12 -63 0 -27 -10 -37 1 -37 38 0 14 6 17 30 13 25 -3 29 -1 24 12 -3
9 -12 16 -20 16 -8 0 -14 5 -14 11 0 5 -5 7 -10 4 -6 -3 -1 10 11 29 12 20 27
36 33 36 7 0 21 9 31 20 14 15 16 29 11 60 -4 25 -2 40 4 40 11 0 15 -7 24
-51 5 -21 15 -29 52 -39 39 -11 45 -16 39 -34 -15 -50 -15 -77 -1 -111 17 -40
66 -67 115 -63 20 1 47 -10 84 -35 29 -20 62 -37 73 -37 11 0 33 14 49 30 16
17 35 30 42 30 8 0 35 11 61 24 41 21 57 23 120 19 50 -4 72 -2 72 6 0 6 -10
11 -21 11 -50 0 -106 25 -151 69 -26 24 -51 42 -54 38 -4 -4 7 -27 24 -51 34
-48 33 -52 -24 -75 -48 -19 -138 -5 -180 28 l-26 20 -34 -26 c-33 -24 -37 -25
-74 -13 -58 19 -71 71 -35 143 38 76 137 108 244 81 30 -8 56 -12 58 -10 20
20 -67 46 -151 46 l-54 0 -16 48 c-30 90 -103 132 -165 96 -18 -11 -33 -29
-36 -46 -7 -31 -16 -34 -47 -17 -18 10 -19 17 -14 82 7 74 13 120 16 125 2 1
3 5 4 10 13 46 42 134 55 162 52 115 237 328 356 410 48 33 195 100 219 100 7
0 21 7 32 15 18 15 16 16 -23 13 -25 -2 -43 1 -43 7 0 10 38 76 49 85 3 3 20
23 36 45 34 45 163 175 174 175 5 0 16 9 26 20 44 48 330 200 378 200 4 0 23
6 42 14 19 8 35 13 35 12 0 -2 19 2 43 9 52 16 373 18 424 2z m-1677 -1459 c0
-7 -5 -20 -10 -28 -8 -12 -11 -13 -22 -2 -11 11 -9 16 6 28 24 17 26 17 26 2z
m70 -40 c35 -62 37 -83 10 -98 -16 -8 -20 -8 -20 4 0 8 -10 18 -22 22 -20 6
-20 8 -5 19 21 15 22 45 2 71 -17 22 -19 34 -5 34 5 0 23 -24 40 -52z m-81
-32 c10 -11 9 -21 -4 -45 -19 -37 -29 -39 -49 -9 -23 33 -21 62 4 55 11 -3 20
-1 20 4 0 14 16 11 29 -5z"/>
<path d="M2584 2345 c-59 -13 -169 -47 -209 -64 -111 -48 -224 -111 -345 -191
-80 -53 -167 -110 -194 -128 -27 -17 -108 -55 -180 -83 -149 -58 -167 -69
-111 -69 35 0 85 8 269 41 27 4 76 11 110 14 87 8 126 14 196 30 194 45 398
137 536 242 108 82 160 153 155 211 -1 16 -145 15 -227 -3z m165 -24 c27 -17
-19 -82 -109 -153 -51 -39 -243 -148 -263 -148 -7 0 -17 -4 -22 -9 -23 -21
-239 -82 -340 -95 -140 -19 -185 -23 -185 -17 0 8 43 51 51 51 9 0 95 57 117
78 7 6 17 12 21 12 5 0 39 22 77 50 68 50 103 69 244 133 71 32 173 70 195 72
6 1 22 5 38 9 25 8 112 22 147 25 8 0 21 -3 29 -8z"/>
<path d="M900 1415 c-16 -17 -30 -34 -30 -38 0 -12 18 -8 34 8 24 25 66 37 82
24 8 -6 14 -8 14 -5 0 4 9 2 20 -4 29 -16 27 15 -2 32 -42 24 -85 18 -118 -17z"/>
<path d="M358 1414 c-16 -8 -28 -21 -28 -29 0 -18 0 -18 37 0 22 11 38 13 56
6 32 -12 42 -3 20 21 -19 22 -48 23 -85 2z"/>
<path d="M898 1189 c-21 -10 -45 -34 -55 -52 -19 -36 -43 -170 -33 -186 7 -12
93 -7 131 8 13 5 26 8 29 8 11 -1 116 36 128 46 6 5 12 18 12 28 0 10 13 25
28 33 16 8 35 23 43 32 13 16 12 17 -6 9 -34 -14 -75 -18 -75 -7 0 5 17 24 38
41 27 22 32 30 19 31 -10 0 -29 -7 -42 -16 -24 -16 -26 -15 -60 15 -43 37 -99
41 -157 10z m144 -37 c23 -21 40 -59 43 -97 0 -10 -38 -45 -49 -45 -3 0 -6 7
-6 15 0 7 -8 19 -17 24 -15 9 -16 12 -4 20 12 8 13 16 2 51 -7 22 -19 44 -27
47 -20 7 -7 23 14 16 9 -3 29 -17 44 -31z m-84 -12 c2 -11 -6 -15 -28 -15 -16
0 -30 1 -30 2 0 1 3 9 6 18 8 20 48 16 52 -5z m-49 -51 c36 19 44 14 38 -25
-6 -35 -31 -74 -48 -74 -5 0 -21 18 -35 40 -22 33 -24 43 -14 55 9 11 16 12
26 4 9 -7 18 -7 33 0z"/>
<path d="M1305 1013 c-36 -5 -168 -44 -175 -52 -3 -3 -23 -16 -45 -27 -39 -21
-57 -44 -35 -44 6 0 41 14 77 31 75 35 169 66 225 75 21 4 41 11 44 15 5 9
-34 10 -91 2z"/>
<path d="M506 931 c-23 -25 -14 -52 23 -74 51 -30 79 -19 110 41 19 36 -1 52
-64 52 -39 0 -56 -5 -69 -19z"/>
<path d="M1309 896 c-2 -2 -33 -6 -69 -9 -63 -5 -150 -32 -150 -46 0 -17 14
-19 53 -5 24 8 99 17 177 20 74 4 137 8 139 10 9 8 -6 13 -59 19 -30 3 -62 8
-71 10 -8 3 -17 3 -20 1z"/>
</g>
</svg>
